<svg xmlns="http://www.w3.org/2000/svg" width="1258" height="295.383" viewBox="0 0 1258 295.383"><g transform="translate(-331 -452)"><path d="M470.54,47.584c-46.077,48.35-81.086,35.126-138.557-18.567C284.43-15.349,245.378,11.9,235.932,50.122c-9.564-38.285-48.645-65.471-96.169-21.017C82.41,82.857,47.4,96.14,1.295,47.879c-4.575,48.586,44.69,94.1,109.954,101.571,60.482,6.907,113.526-21.223,124.713-63.995,11.305,42.83,64.319,70.872,124.831,63.847C426,141.716,475.174,96.2,470.54,47.584Z" transform="translate(724.079 596.891)" fill="#bca7ab" fill-rule="evenodd"/><text transform="translate(331 572)" fill="#333" font-size="96" font-family="BowlbyOne-Regular, Bowlby One"><tspan x="0" y="0">SAMA ENTERTAINMENT</tspan></text><rect width="1258" height="13" transform="translate(331 452)" fill="#333"/><rect width="458" height="13" transform="translate(331 603)" fill="#333"/><rect width="458" height="13" transform="translate(1131 603)" fill="#333"/></g></svg>